<svg width="157" height="33" viewBox="0 0 157 33" fill="none" xmlns="http://www.w3.org/2000/svg">
<path fill-rule="evenodd" clip-rule="evenodd" d="M140.508 1.32H16.4916C8.11218 1.32 1.31933 8.11632 1.31933 16.5C1.31933 24.8837 8.11219 31.68 16.4916 31.68H140.508C148.888 31.68 155.681 24.8837 155.681 16.5C155.681 8.11632 148.888 1.32 140.508 1.32ZM16.4916 0C7.38354 0 0 7.3873 0 16.5C0 25.6127 7.38354 33 16.4916 33H140.508C149.616 33 157 25.6127 157 16.5C157 7.3873 149.616 0 140.508 0H16.4916Z" fill="#E31E25"/>
<path d="M43.505 22.575L41.015 18.3H39.365V22.575H38V12.12H41.375C42.165 12.12 42.83 12.255 43.37 12.525C43.92 12.795 44.33 13.16 44.6 13.62C44.87 14.08 45.005 14.605 45.005 15.195C45.005 15.915 44.795 16.55 44.375 17.1C43.965 17.65 43.345 18.015 42.515 18.195L45.14 22.575H43.505ZM39.365 17.205H41.375C42.115 17.205 42.67 17.025 43.04 16.665C43.41 16.295 43.595 15.805 43.595 15.195C43.595 14.575 43.41 14.095 43.04 13.755C42.68 13.415 42.125 13.245 41.375 13.245H39.365V17.205Z" fill="#E31E25"/>
<path d="M48.491 13.23V16.725H52.301V17.85H48.491V21.45H52.751V22.575H47.126V12.105H52.751V13.23H48.491Z" fill="#E31E25"/>
<path d="M60.9964 20.25H56.4364L55.5964 22.575H54.1564L57.9364 12.18H59.5114L63.2764 22.575H61.8364L60.9964 20.25ZM60.6064 19.14L58.7164 13.86L56.8264 19.14H60.6064Z" fill="#E31E25"/>
<path d="M68.1788 12.12C69.3188 12.12 70.3038 12.335 71.1338 12.765C71.9738 13.185 72.6138 13.79 73.0538 14.58C73.5038 15.37 73.7288 16.3 73.7288 17.37C73.7288 18.44 73.5038 19.37 73.0538 20.16C72.6138 20.94 71.9738 21.54 71.1338 21.96C70.3038 22.37 69.3188 22.575 68.1788 22.575H64.9238V12.12H68.1788ZM68.1788 21.45C69.5288 21.45 70.5588 21.095 71.2688 20.385C71.9788 19.665 72.3338 18.66 72.3338 17.37C72.3338 16.07 71.9738 15.055 71.2538 14.325C70.5438 13.595 69.5188 13.23 68.1788 13.23H66.2888V21.45H68.1788Z" fill="#E31E25"/>
<path d="M90.1333 12.195V22.575H88.7683V14.835L85.3183 22.575H84.3583L80.8933 14.82V22.575H79.5283V12.195H80.9983L84.8383 20.775L88.6783 12.195H90.1333Z" fill="#E31E25"/>
<path d="M97.1882 22.68C96.2182 22.68 95.3333 22.455 94.5332 22.005C93.7332 21.545 93.0982 20.91 92.6282 20.1C92.1682 19.28 91.9382 18.36 91.9382 17.34C91.9382 16.32 92.1682 15.405 92.6282 14.595C93.0982 13.775 93.7332 13.14 94.5332 12.69C95.3333 12.23 96.2182 12 97.1882 12C98.1683 12 99.0582 12.23 99.8582 12.69C100.658 13.14 101.288 13.77 101.748 14.58C102.208 15.39 102.438 16.31 102.438 17.34C102.438 18.37 102.208 19.29 101.748 20.1C101.288 20.91 100.658 21.545 99.8582 22.005C99.0582 22.455 98.1683 22.68 97.1882 22.68ZM97.1882 21.495C97.9183 21.495 98.5732 21.325 99.1532 20.985C99.7432 20.645 100.203 20.16 100.533 19.53C100.873 18.9 101.043 18.17 101.043 17.34C101.043 16.5 100.873 15.77 100.533 15.15C100.203 14.52 99.7482 14.035 99.1682 13.695C98.5882 13.355 97.9282 13.185 97.1882 13.185C96.4482 13.185 95.7882 13.355 95.2082 13.695C94.6282 14.035 94.1682 14.52 93.8282 15.15C93.4982 15.77 93.3332 16.5 93.3332 17.34C93.3332 18.17 93.4982 18.9 93.8282 19.53C94.1682 20.16 94.6282 20.645 95.2082 20.985C95.7982 21.325 96.4582 21.495 97.1882 21.495Z" fill="#E31E25"/>
<path d="M109.745 22.575L107.255 18.3H105.605V22.575H104.24V12.12H107.615C108.405 12.12 109.07 12.255 109.61 12.525C110.16 12.795 110.57 13.16 110.84 13.62C111.11 14.08 111.245 14.605 111.245 15.195C111.245 15.915 111.035 16.55 110.615 17.1C110.205 17.65 109.585 18.015 108.755 18.195L111.38 22.575H109.745ZM105.605 17.205H107.615C108.355 17.205 108.91 17.025 109.28 16.665C109.65 16.295 109.835 15.805 109.835 15.195C109.835 14.575 109.65 14.095 109.28 13.755C108.92 13.415 108.365 13.245 107.615 13.245H105.605V17.205Z" fill="#E31E25"/>
<path d="M114.731 13.23V16.725H118.541V17.85H114.731V21.45H118.991V22.575H113.366V12.105H118.991V13.23H114.731Z" fill="#E31E25"/>
</svg>
